<?xml version="1.0" encoding="UTF-8"?>
<svg width="160px" height="47px" viewBox="0 0 160 47" version="1.1" xmlns="http://www.w3.org/2000/svg" xmlns:xlink="http://www.w3.org/1999/xlink">
    <!-- Generator: Sketch 49.3 (51167) - http://www.bohemiancoding.com/sketch -->
    <title>app-store</title>
    <desc>Created with Sketch.</desc>
    <defs></defs>
    <g id="Page-1" stroke="none" stroke-width="1" fill="none" fill-rule="evenodd">
        <g id="Artboard-2" transform="translate(-20.000000, -957.000000)">
            <g id="Group" transform="translate(20.000000, 957.000000)">
                <g id="app-store">
                    <rect id="Button" fill="#2B2D32" x="0" y="0" width="159.927667" height="47" rx="5.81555162"></rect>
                    <path d="M48.9475588,20.9656624 C50.9539241,20.9656624 52.2139603,19.5202598 52.2139603,17.7135065 C52.2139603,15.9262857 50.9539241,14.4515844 48.9475588,14.4515844 L46.883038,14.4515844 L46.883038,20.9656624 L48.9475588,20.9656624 Z M48.9475588,20.4578183 L47.4355154,20.4578183 L47.4355154,14.9594286 L48.9475588,14.9594286 C50.6631465,14.9594286 51.6324051,16.1899741 51.6324051,17.7135065 C51.6324051,19.237039 50.653454,20.4578183 48.9475588,20.4578183 L48.9475588,20.4578183 Z M56.4883908,21.0828572 C58.378445,21.0828572 59.6287886,19.6179222 59.6287886,17.7135065 C59.6287886,15.8090909 58.378445,14.3441558 56.4883908,14.3441558 C54.5886439,14.3441558 53.3479929,15.8090909 53.3479929,17.7135065 C53.3479929,19.6179222 54.5886439,21.0828572 56.4883908,21.0828572 L56.4883908,21.0828572 Z M56.4883908,20.5750131 C54.9278844,20.5750131 53.929548,19.3542338 53.929548,17.7135065 C53.929548,16.063013 54.9278844,14.852 56.4883908,14.852 C58.0392045,14.852 59.0472335,16.063013 59.0472335,17.7135065 C59.0472335,19.3542338 58.0392045,20.5750131 56.4883908,20.5750131 L56.4883908,20.5750131 Z M66.5686802,20.9656624 L68.4102716,14.4515844 L67.7899461,14.4515844 L66.2294397,20.1843637 L64.6495482,14.4515844 L64.1455337,14.4515844 L62.5559496,20.1843637 L60.9954433,14.4515844 L60.3751178,14.4515844 L62.2264017,20.9656624 L62.8467272,20.9656624 L64.397541,15.3696104 L65.9483547,20.9656624 L66.5686802,20.9656624 Z M74.5650637,20.9656624 L74.5650637,14.4515844 L74.0125863,14.4515844 L74.0125863,19.9695066 L69.9610853,14.4515844 L69.3989154,14.4515844 L69.3989154,20.9656624 L69.9513928,20.9656624 L69.9513928,15.3696104 L74.0222789,20.9656624 L74.5650637,20.9656624 Z M79.7312121,20.9656624 L79.7312121,20.4578183 L76.6005068,20.4578183 L76.6005068,14.4515844 L76.0383368,14.4515844 L76.0383368,20.9656624 L79.7312121,20.9656624 Z M83.7633279,21.0828572 C85.6533821,21.0828572 86.9037257,19.6179222 86.9037257,17.7135065 C86.9037257,15.8090909 85.6533821,14.3441558 83.7633279,14.3441558 C81.863581,14.3441558 80.62293,15.8090909 80.62293,17.7135065 C80.62293,19.6179222 81.863581,21.0828572 83.7633279,21.0828572 L83.7633279,21.0828572 Z M83.7633279,20.5750131 C82.2028215,20.5750131 81.2044852,19.3542338 81.2044852,17.7135065 C81.2044852,16.063013 82.2028215,14.852 83.7633279,14.852 C85.3141416,14.852 86.3221706,16.063013 86.3221706,17.7135065 C86.3221706,19.3542338 85.3141416,20.5750131 83.7633279,20.5750131 L83.7633279,20.5750131 Z M93.5916101,20.9656624 L90.9455341,14.4515844 L90.2573605,14.4515844 L87.6112845,20.9656624 L88.2509952,20.9656624 L88.8907059,19.3640001 L92.3121888,19.3640001 L92.9518994,20.9656624 L93.5916101,20.9656624 Z M92.1280296,18.8561559 L89.074865,18.8561559 L90.6062936,15.0473247 L92.1280296,18.8561559 Z M96.6060044,20.9656624 C98.6123697,20.9656624 99.8724059,19.5202598 99.8724059,17.7135065 C99.8724059,15.9262857 98.6123697,14.4515844 96.6060044,14.4515844 L94.5414835,14.4515844 L94.5414835,20.9656624 L96.6060044,20.9656624 Z M96.6060044,20.4578183 L95.0939609,20.4578183 L95.0939609,14.9594286 L96.6060044,14.9594286 C98.3215921,14.9594286 99.2908507,16.1899741 99.2908507,17.7135065 C99.2908507,19.237039 98.3118995,20.4578183 96.6060044,20.4578183 L96.6060044,20.4578183 Z M104.31161,20.9656624 L104.31161,17.8795325 L107.791249,17.8795325 L107.791249,17.3716884 L104.31161,17.3716884 L104.31161,14.9594286 L107.859097,14.9594286 L107.859097,14.4515844 L103.759133,14.4515844 L103.759133,20.9656624 L104.31161,20.9656624 Z M113.471104,20.9656624 L111.600435,18.2311169 C112.569694,18.192052 113.393563,17.5377143 113.393563,16.356 C113.393563,15.1645195 112.540616,14.4515844 111.425968,14.4515844 L109.012515,14.4515844 L109.012515,20.9656624 L109.564992,20.9656624 L109.564992,18.2701819 L110.989802,18.2701819 L112.802316,20.9656624 L113.471104,20.9656624 Z M111.377505,17.7623377 L109.564992,17.7623377 L109.564992,14.9594286 L111.377505,14.9594286 C112.240146,14.9594286 112.812008,15.5356364 112.812008,16.356 C112.812008,17.1763637 112.240146,17.7623377 111.377505,17.7623377 L111.377505,17.7623377 Z M117.667994,21.0828572 C119.558048,21.0828572 120.808392,19.6179222 120.808392,17.7135065 C120.808392,15.8090909 119.558048,14.3441558 117.667994,14.3441558 C115.768247,14.3441558 114.527596,15.8090909 114.527596,17.7135065 C114.527596,19.6179222 115.768247,21.0828572 117.667994,21.0828572 L117.667994,21.0828572 Z M117.667994,20.5750131 C116.107487,20.5750131 115.109151,19.3542338 115.109151,17.7135065 C115.109151,16.063013 116.107487,14.852 117.667994,14.852 C119.218808,14.852 120.226837,16.063013 120.226837,17.7135065 C120.226837,19.3542338 119.218808,20.5750131 117.667994,20.5750131 L117.667994,20.5750131 Z M128.22322,20.9656624 L128.22322,14.4515844 L127.389658,14.4515844 L125.199133,19.8718442 L122.998916,14.4515844 L122.175046,14.4515844 L122.175046,20.9656624 L122.727524,20.9656624 L122.727524,15.1547533 L125.092515,20.9656624 L125.305752,20.9656624 L127.66105,15.1547533 L127.66105,20.9656624 L128.22322,20.9656624 Z M52.7470525,32.563065 L50.2560579,26.048987 L48.5307776,26.048987 L46.039783,32.563065 L47.6002894,32.563065 L48.007378,31.4594806 L50.7794576,31.4594806 L51.1865462,32.563065 L52.7470525,32.563065 Z M50.4014467,30.2387014 L48.3853888,30.2387014 L49.3934178,27.4357922 L50.4014467,30.2387014 Z M54.7243401,32.563065 L54.7243401,30.2387014 L56.3720797,30.2387014 C57.7678121,30.2387014 58.543219,29.2816104 58.543219,28.1487273 C58.543219,27.0060779 57.7775047,26.048987 56.3720797,26.048987 L53.3479929,26.048987 L53.3479929,32.563065 L54.7243401,32.563065 Z M56.178228,29.0179221 L54.7243401,29.0179221 L54.7243401,27.2697663 L56.178228,27.2697663 C56.7210128,27.2697663 57.137794,27.6018182 57.137794,28.1487273 C57.137794,28.6858702 56.7210128,29.0179221 56.178228,29.0179221 L56.178228,29.0179221 Z M60.7822064,32.563065 L60.7822064,30.2387014 L62.429946,30.2387014 C63.8256784,30.2387014 64.6010853,29.2816104 64.6010853,28.1487273 C64.6010853,27.0060779 63.835371,26.048987 62.429946,26.048987 L59.4058592,26.048987 L59.4058592,32.563065 L60.7822064,32.563065 Z M62.2360943,29.0179221 L60.7822064,29.0179221 L60.7822064,27.2697663 L62.2360943,27.2697663 C62.7788791,27.2697663 63.1956603,27.6018182 63.1956603,28.1487273 C63.1956603,28.6858702 62.7788791,29.0179221 62.2360943,29.0179221 L62.2360943,29.0179221 Z M69.524919,32.563065 L69.524919,31.3422858 L66.7916097,31.3422858 L66.7916097,26.048987 L65.4055699,26.048987 L65.4055699,32.563065 L69.524919,32.563065 Z M75.0303078,32.563065 L75.0303078,31.3422858 L71.8317545,31.3422858 L71.8317545,29.8578182 L74.9624597,29.8578182 L74.9624597,28.637039 L71.8317545,28.637039 L71.8317545,27.2697663 L75.0303078,27.2697663 L75.0303078,26.048987 L70.4554072,26.048987 L70.4554072,32.563065 L75.0303078,32.563065 Z M84.625968,32.563065 L82.1349734,26.048987 L80.4096931,26.048987 L77.9186985,32.563065 L79.4792048,32.563065 L79.8862935,31.4594806 L82.6583731,31.4594806 L83.0654617,32.563065 L84.625968,32.563065 Z M82.2803622,30.2387014 L80.2643043,30.2387014 L81.2723333,27.4357922 L82.2803622,30.2387014 Z M86.6032556,32.563065 L86.6032556,30.2387014 L88.2509952,30.2387014 C89.6467276,30.2387014 90.4221345,29.2816104 90.4221345,28.1487273 C90.4221345,27.0060779 89.6564202,26.048987 88.2509952,26.048987 L85.2269084,26.048987 L85.2269084,32.563065 L86.6032556,32.563065 Z M88.0571435,29.0179221 L86.6032556,29.0179221 L86.6032556,27.2697663 L88.0571435,27.2697663 C88.5999283,27.2697663 89.0167095,27.6018182 89.0167095,28.1487273 C89.0167095,28.6858702 88.5999283,29.0179221 88.0571435,29.0179221 L88.0571435,29.0179221 Z M92.6611219,32.563065 L92.6611219,30.2387014 L94.3088615,30.2387014 C95.7045939,30.2387014 96.4800008,29.2816104 96.4800008,28.1487273 C96.4800008,27.0060779 95.7142865,26.048987 94.3088615,26.048987 L91.2847746,26.048987 L91.2847746,32.563065 L92.6611219,32.563065 Z M94.1150098,29.0179221 L92.6611219,29.0179221 L92.6611219,27.2697663 L94.1150098,27.2697663 C94.6577946,27.2697663 95.0745758,27.6018182 95.0745758,28.1487273 C95.0745758,28.6858702 94.6577946,29.0179221 94.1150098,29.0179221 L94.1150098,29.0179221 Z M102.140471,32.6802598 C103.875444,32.6802598 104.728391,31.7817663 104.728391,30.5902858 C104.728391,28.1584935 101.016131,28.8518961 101.016131,27.8264416 C101.016131,27.4357922 101.345679,27.1818701 101.927234,27.1818701 C102.58633,27.1818701 103.284196,27.4064935 103.807596,27.8948052 L104.57331,26.8595844 C103.933599,26.2638442 103.080652,25.9513247 102.053238,25.9513247 C100.531502,25.9513247 99.6010135,26.8498182 99.6010135,27.9338702 C99.6010135,30.3851949 103.322966,29.5941299 103.322966,30.7270131 C103.322966,31.1078962 102.964341,31.4497144 102.198627,31.4497144 C101.306909,31.4497144 100.59935,31.0395325 100.143798,30.5609871 L99.3877766,31.645039 C99.9984095,32.2603118 100.890127,32.6802598 102.140471,32.6802598 L102.140471,32.6802598 Z M108.527885,32.563065 L108.527885,27.2697663 L110.408247,27.2697663 L110.408247,26.048987 L105.251791,26.048987 L105.251791,27.2697663 L107.141845,27.2697663 L107.141845,32.563065 L108.527885,32.563065 Z M114.362822,32.6802598 C116.311032,32.6802598 117.735842,31.2739222 117.735842,29.3109091 C117.735842,27.3478961 116.311032,25.9415584 114.362822,25.9415584 C112.40492,25.9415584 110.980109,27.3478961 110.980109,29.3109091 C110.980109,31.2739222 112.40492,32.6802598 114.362822,32.6802598 L114.362822,32.6802598 Z M114.362822,31.4497144 C113.160941,31.4497144 112.395227,30.5219221 112.395227,29.3109091 C112.395227,28.0901299 113.160941,27.1721039 114.362822,27.1721039 C115.55501,27.1721039 116.320724,28.0901299 116.320724,29.3109091 C116.320724,30.5219221 115.55501,31.4497144 114.362822,31.4497144 L114.362822,31.4497144 Z M123.94879,32.563065 L122.485209,30.0824416 C123.183075,29.9164156 123.910019,29.2913767 123.910019,28.1487273 C123.910019,26.9377143 123.076457,26.048987 121.729187,26.048987 L118.705101,26.048987 L118.705101,32.563065 L120.081448,32.563065 L120.081448,30.2484676 L121.089477,30.2484676 L122.359205,32.563065 L123.94879,32.563065 Z M121.535336,29.0276884 L120.081448,29.0276884 L120.081448,27.2697663 L121.535336,27.2697663 C122.07812,27.2697663 122.494902,27.6018182 122.494902,28.1389611 C122.494902,28.6956364 122.07812,29.0276884 121.535336,29.0276884 L121.535336,29.0276884 Z M129.512334,32.563065 L129.512334,31.3422858 L126.313781,31.3422858 L126.313781,29.8578182 L129.444486,29.8578182 L129.444486,28.637039 L126.313781,28.637039 L126.313781,27.2697663 L129.512334,27.2697663 L129.512334,26.048987 L124.937433,26.048987 L124.937433,32.563065 L129.512334,32.563065 Z" id="DOWNLOAD-FROM" fill="#FFFFFF"></path>
                    <path d="M26.3867044,16.9543275 C25.6933295,17.8492864 24.4984704,18.5427361 23.3439156,18.5068804 C23.133121,17.3530432 23.6745527,16.1658601 24.3301201,15.3655603 C25.0523857,14.483868 26.289689,13.8072705 27.347585,13.7337662 C27.5259222,14.9395943 27.0340683,16.1188891 26.3867044,16.9543275 Z M32.1066908,28.2876052 C31.6430141,29.3206086 31.4211627,29.7813547 30.8240898,30.6938829 C29.9916119,31.9681954 28.8177967,33.5544527 27.3636354,33.5684364 C26.0706909,33.5802688 25.7389838,32.7225998 23.9848594,32.7322809 C22.2310916,32.7423205 21.8647871,33.5831372 20.5721993,33.5713049 C19.1176813,33.5580382 18.005214,32.1252434 17.1723795,30.8512895 C14.843296,27.2883061 14.6000441,23.1068114 16.0363717,20.8837564 C17.0571736,19.3039532 18.6672016,18.3795926 20.1812842,18.3795926 C21.7231874,18.3795926 22.6922716,19.2290147 23.966669,19.2290147 C25.2032589,19.2290147 25.9565551,18.3781583 27.7388568,18.3781583 C29.0860158,18.3781583 30.5134265,19.1157106 31.5306617,20.3900231 C28.1978967,22.2258362 28.7393283,27.0086314 32.1066908,28.2876052 Z" id="Icon---Apple" fill="#FFFFFF"></path>
                </g>
            </g>
        </g>
    </g>
</svg>