<?xml version="1.0" encoding="UTF-8"?>
<svg width="100px" height="100px" viewBox="0 0 100 100" version="1.1" xmlns="http://www.w3.org/2000/svg" xmlns:xlink="http://www.w3.org/1999/xlink">
    <!-- Generator: Sketch 49.3 (51167) - http://www.bohemiancoding.com/sketch -->
    <title>guided-free</title>
    <desc>Created with Sketch.</desc>
    <defs>
        <linearGradient x1="7.35520833%" y1="100%" x2="7.35520869%" y2="0%" id="linearGradient-1">
            <stop stop-color="#A12F5B" offset="0%"></stop>
            <stop stop-color="#E2387E" offset="100%"></stop>
        </linearGradient>
        <linearGradient x1="7.35520834%" y1="98.3685971%" x2="7.35520869%" y2="0%" id="linearGradient-2">
            <stop stop-color="#683CA4" offset="0%"></stop>
            <stop stop-color="#E2387E" offset="100%"></stop>
        </linearGradient>
        <path d="M24.2301465,2.31072814 C26.6688204,-0.735632355 31.2990684,-0.735632355 33.7370239,2.31072814 C41.9595571,12.5839401 57.9678888,34.1108843 57.9678888,45.9984376 C57.9678888,61.9947014 44.9908395,74.9618321 28.9839444,74.9618321 C12.976331,74.9618321 0,61.9947014 0,45.9984376 C0,34.1108843 16.0076134,12.5839401 24.2301465,2.31072814 Z" id="path-3"></path>
    </defs>
    <g id="Page-1" stroke="none" stroke-width="1" fill="none" fill-rule="evenodd">
        <g id="Main" transform="translate(-20.000000, -547.000000)">
            <g id="guided-free" transform="translate(20.000000, 547.000000)">
                <rect id="Rectangle-16" fill="url(#linearGradient-1)" x="0" y="0" width="100" height="100"></rect>
                <g id="Group-2" transform="translate(21.000000, 13.000000)">
                    <g id="Stroke-180">
                        <use fill="url(#linearGradient-2)" fill-rule="evenodd" xlink:href="#path-3"></use>
                        <path stroke="#FFFFFF" stroke-width="3.32203666" d="M25.5268972,3.34871632 C11.6423039,20.6960995 1.66101833,36.8731048 1.66101833,45.9984376 C1.66101833,61.0770825 13.8934225,73.3008137 28.9839444,73.3008137 C44.0740025,73.3008137 56.3068704,61.0768282 56.3068704,45.9984376 C56.3068704,36.87323 46.3260638,20.6975877 32.4401666,3.34858315 C30.6671445,1.13309375 27.3006165,1.13307602 25.5268972,3.34871632 Z M25.5268972,3.34871632 C25.526883,3.34873406 25.5268689,3.34875179 25.5268547,3.34876952 L25.5269398,3.34866311 C25.5269256,3.34868085 25.5269114,3.34869859 25.5268972,3.34871632 Z"></path>
                    </g>
                    <path d="M44.554351,36.1966192 C43.7825056,35.929687 42.9510298,36.3150328 42.6535478,37.0863933 L36.5658854,53.7800281 L30.7214347,37.8303248 L30.7214347,37.8296558 L29.0209629,33.4610655 L29.0223029,33.4463474 C27.6916736,30.4893536 26.3623844,26.5174821 26.3623844,25.5153155 C26.3623844,24.0341426 27.5690628,22.8285989 29.0531231,22.8285989 C30.5365134,22.8285989 31.7438618,24.0341426 31.7438618,25.5153155 C31.7438618,26.2913591 30.9452163,28.848958 29.9670095,31.3376496 L31.6004808,35.5777913 C33.1167014,31.634018 34.7468227,27.0419806 34.7468227,25.5280265 C34.7468227,22.0826605 32.5036471,19.842838 29.0531231,19.842838 C25.6025991,19.842838 23.3587535,22.0826605 23.3587535,25.5280265 C23.3587535,27.343701 25.7051098,33.5901831 27.3854815,37.8316628 L29.0531231,41.941349 C29.0531231,41.941349 29.0564731,41.9326519 29.0571431,41.9306449 L35.1702657,58.6135756 C35.3786371,59.2063124 35.9427811,59.5923272 36.5658854,59.5923272 C37.1896597,59.5923272 37.7538037,59.2063124 37.9621751,58.6135756 L45.4454572,38.094581 C45.7422693,37.3232204 45.3268664,36.4929876 44.554351,36.1966192" id="Fill-182" fill="#FFFFFF"></path>
                    <path d="M26.5357816,40.1612655 L21.569707,53.7801619 L15.4518944,37.0865271 C15.1550824,36.3151666 14.3236066,35.9298208 13.5517612,36.196753 C12.7792458,36.4931214 12.3638429,37.3233542 12.660655,38.0940458 L20.1740873,58.6137094 C20.3817888,59.2064462 20.9459327,59.591792 21.569707,59.591792 C22.1928114,59.591792 22.7274751,59.2064462 22.9653267,58.6137094 L28.1585329,44.3733091 L26.5357816,40.1612655 Z" id="Fill-184" fill="#FFFFFF"></path>
                </g>
            </g>
        </g>
    </g>
</svg>