<?xml version="1.0" encoding="UTF-8"?>
<svg width="45px" height="38px" viewBox="0 0 45 38" version="1.1" xmlns="http://www.w3.org/2000/svg" xmlns:xlink="http://www.w3.org/1999/xlink">
    <!-- Generator: Sketch 49.3 (51167) - http://www.bohemiancoding.com/sketch -->
    <title>mood-rad</title>
    <desc>Created with Sketch.</desc>
    <defs></defs>
    <g id="Page-1" stroke="none" stroke-width="1" fill="none" fill-rule="evenodd">
        <g id="Mood-Check" transform="translate(-299.000000, -170.000000)" fill-rule="nonzero">
            <g id="mood-rad" transform="translate(299.000000, 170.000000)">
                <path d="M22.5,0 C0.522025396,0 0,24.4175865 0,29.2514717 C0,34.0853569 10.0736793,38 22.5,38 C34.9298479,38 45,34.0818617 45,29.2514717 C45,24.4175865 44.4815018,0 22.5,0 Z" id="Shape" fill="#FCC21B"></path>
                <path d="M33.3751498,21.3919082 C32.2923767,20.6523848 30.9292741,21.1406825 29.7238568,21.3919082 C26.36691,22.0925093 23.416441,22.1208164 22.0007765,22.1208164 C20.5851121,22.1208164 17.6346431,22.0925093 14.2776962,21.3919082 C13.072279,21.1406825 11.7091763,20.6523848 10.6264032,21.3919082 C9.25278823,22.3295814 10.2654789,25.6910515 12.4275209,27.9626975 C13.7345576,29.3355927 16.8462161,32 22.0007765,32 C27.1553369,32 30.2669954,29.3355927 31.5740322,27.9626975 C33.7360742,25.6910515 34.7452607,22.3295814 33.3751498,21.3919082 Z" id="Shape" fill="#ED6C30"></path>
                <g id="Group" transform="translate(12.000000, 11.000000)" fill="#2F2F2F">
                    <path d="M3.03320823,5.99991463 C1.37648652,6.01227904 0.01863889,4.68001401 0.000189873201,3.02627437 C-0.0182591436,1.36635252 1.31007006,0.0124497794 2.96679177,8.53708816e-05 C4.61982367,-0.0122790377 5.98136111,1.31998599 5.99981013,2.97990784 C6.01825914,4.63364748 4.68992994,5.98445912 3.03320823,5.99991463 Z" id="Shape"></path>
                    <path d="M19.0110701,5.99999465 C20.6642024,5.99690188 22.0036824,4.65154345 21.9999924,2.99690722 C21.9963024,1.33608544 20.6494423,-0.00308743177 18.99631,5.3462241e-06 C17.3394876,0.00309812422 15.9963176,1.34845655 16.0000076,3.00927833 C16.0073876,4.66391456 17.3542477,6.00308743 19.0110701,5.99999465 Z" id="Shape"></path>
                </g>
            </g>
        </g>
    </g>
</svg>