<?xml version="1.0" encoding="UTF-8"?>
<svg width="45px" height="38px" viewBox="0 0 45 38" version="1.1" xmlns="http://www.w3.org/2000/svg" xmlns:xlink="http://www.w3.org/1999/xlink">
    <!-- Generator: Sketch 49.3 (51167) - http://www.bohemiancoding.com/sketch -->
    <title>mood-down</title>
    <desc>Created with Sketch.</desc>
    <defs></defs>
    <g id="Page-1" stroke="none" stroke-width="1" fill="none" fill-rule="evenodd">
        <g id="Mood-Check" transform="translate(-98.000000, -170.000000)" fill-rule="nonzero">
            <g id="mood-down" transform="translate(98.000000, 170.000000)">
                <path d="M22.5,0 C0.522025396,0 0,24.4175865 0,29.2514717 C0,34.0853569 10.0736793,38 22.5,38 C34.9298479,38 45,34.0818617 45,29.2514717 C45,24.4175865 44.4815018,0 22.5,0 Z" id="Shape" fill="#FCC21B"></path>
                <path d="M31.8745463,32 C31.3881557,32 30.9399815,31.674871 30.7940643,31.1710996 C29.803912,27.7804684 26.3123222,25.3223501 22.494156,25.3223501 C18.6864123,25.3223501 15.201771,27.7804684 14.2116187,31.1710996 C14.0309593,31.7856292 13.4021258,32.1321953 12.8045602,31.9499802 C12.2069946,31.7641921 11.8699954,31.1175069 12.0471805,30.5029774 C13.3187445,26.1548233 17.7101569,23 22.4906817,23 C27.2816293,23 31.6834643,26.1548233 32.9515541,30.5029774 C33.1322134,31.1175069 32.79174,31.7641921 32.1941744,31.9499802 C32.0899479,31.9821358 31.9822471,32 31.8745463,32 Z" id="Shape" fill="#2F2F2F"></path>
                <g id="Group" transform="translate(12.000000, 13.000000)" fill="#2F2F2F">
                    <path d="M3.03320823,5.99991463 C1.37648652,6.01227904 0.01863889,4.68001401 0.000189873201,3.02627437 C-0.0182591436,1.36635252 1.31007006,0.0124497794 2.96679177,8.53708816e-05 C4.61982367,-0.0122790377 5.98136111,1.31998599 5.99981013,2.97990784 C6.01825914,4.63673858 4.68992994,5.98755022 3.03320823,5.99991463 Z" id="Shape"></path>
                    <path d="M19.0110701,5.99999465 C20.6642024,5.99690188 22.0036824,4.65154345 21.9999924,2.99690722 C21.9963024,1.33608544 20.6494423,-0.00308743177 18.99631,5.3462241e-06 C17.3394876,0.00309812422 15.9963176,1.34845655 16.0000076,3.00927833 C16.0073876,4.66391456 17.3542477,6.00308743 19.0110701,5.99999465 Z" id="Shape"></path>
                </g>
            </g>
        </g>
    </g>
</svg>