<?xml version="1.0" encoding="UTF-8"?>
<svg width="45px" height="38px" viewBox="0 0 45 38" version="1.1" xmlns="http://www.w3.org/2000/svg" xmlns:xlink="http://www.w3.org/1999/xlink">
    <!-- Generator: Sketch 49.3 (51167) - http://www.bohemiancoding.com/sketch -->
    <title>mood-awful</title>
    <desc>Created with Sketch.</desc>
    <defs></defs>
    <g id="Page-1" stroke="none" stroke-width="1" fill="none" fill-rule="evenodd">
        <g id="Mood-Check" transform="translate(-32.000000, -170.000000)" fill-rule="nonzero">
            <g id="mood-awful" transform="translate(32.000000, 170.000000)">
                <path d="M22.5,0 C0.522025396,0 0,24.4175865 0,29.2514717 C0,34.0853569 10.0736793,38 22.5,38 C34.9298479,38 45,34.0818617 45,29.2514717 C45,24.4175865 44.4815018,0 22.5,0 Z" id="Shape" fill="#FCC21B"></path>
                <g id="Group" transform="translate(12.000000, 11.000000)" fill="#2F2F2F">
                    <path d="M3.03320823,5.99991463 C1.37648652,6.01227904 0.01863889,4.68001401 0.000189873201,3.02627437 C-0.0182591436,1.36635252 1.31007006,0.0124497794 2.96679177,8.53708816e-05 C4.61982367,-0.0122790377 5.98136111,1.31998599 5.99981013,2.97990784 C6.01825914,4.63364748 4.68992994,5.98445912 3.03320823,5.99991463 Z" id="Shape"></path>
                    <path d="M19.0110701,5.99999465 C20.6642024,5.99690188 22.0036824,4.65154345 21.9999924,2.99690722 C21.9963024,1.33608544 20.6494423,-0.00308743177 18.99631,5.3462241e-06 C17.3394876,0.00309812422 15.9963176,1.34845655 16.0000076,3.00927833 C16.0073876,4.66391456 17.3542477,6.00308743 19.0110701,5.99999465 Z" id="Shape"></path>
                </g>
                <path d="M32.9496733,30 C32.6869232,30 32.424173,29.9053654 32.2209796,29.7160963 C26.8713872,24.7511618 17.1286128,24.7511618 11.7790204,29.7160963 C11.3621235,30.104774 10.6964899,30.0912548 10.2936064,29.6890579 C9.89072287,29.286861 9.90473621,28.6446979 10.3216331,28.2560203 C16.4349525,22.5813266 27.5685508,22.5813266 33.6783669,28.2560203 C34.0952638,28.6446979 34.1092771,29.286861 33.7063936,29.6890579 C33.4996969,29.8986058 33.2229334,30 32.9496733,30 Z" id="Shape" fill="#2F2F2F"></path>
                <path d="M37.1502813,25.5435546 C36.6199932,24.6983804 36.0178597,22.8829462 35.9289081,22.3082277 C35.7715323,21.3143028 35.3473018,19.5090107 35.0393926,18.00122 C34.9572835,17.5921556 34.9607047,17.0275793 35.4807292,17.0005337 C35.894696,16.9870109 36.5481477,17.2338018 36.9313236,17.3622683 C38.0569028,17.7409063 39.2372214,18.3900001 40.2156884,19.0424746 C42.0015617,20.2493833 43.2092501,22.1865226 42.9697651,24.3772142 C42.7884408,25.9931872 41.252316,27.0614874 39.8633034,26.9972542 C38.8643091,26.9499244 37.6463572,26.3278762 37.1502813,25.5435546 Z" id="Shape" fill="#FFFFFF"></path>
            </g>
        </g>
    </g>
</svg>