<?xml version="1.0" encoding="UTF-8"?>
<svg width="45px" height="38px" viewBox="0 0 45 38" version="1.1" xmlns="http://www.w3.org/2000/svg" xmlns:xlink="http://www.w3.org/1999/xlink">
    <!-- Generator: Sketch 49.3 (51167) - http://www.bohemiancoding.com/sketch -->
    <title>mood-meh</title>
    <desc>Created with Sketch.</desc>
    <defs></defs>
    <g id="Page-1" stroke="none" stroke-width="1" fill="none" fill-rule="evenodd">
        <g id="Mood-Check" transform="translate(-165.000000, -170.000000)" fill-rule="nonzero">
            <g id="mood-meh" transform="translate(165.000000, 170.000000)">
                <path d="M22.5,0 C0.517767689,0 0,24.4166054 0,29.2468773 C0,34.0841293 10.0700532,38 22.5,38 C34.9264245,38 45,34.0841293 45,29.2468773 C45,24.4166054 44.4787101,0 22.5,0 Z" id="Shape" fill="#FCC21B"></path>
                <g id="Group" transform="translate(12.000000, 11.000000)" fill="#2F2F2F">
                    <path d="M3.03320823,5.99991463 C1.37648652,6.01227904 0.01863889,4.68001401 0.000189873201,3.02627437 C-0.0182591436,1.36635252 1.31007006,0.0124497794 2.96679177,8.53708816e-05 C4.61982367,-0.0122790377 5.98136111,1.31998599 5.99981013,2.97990784 C6.01825914,4.63364748 4.68992994,5.98445912 3.03320823,5.99991463 Z" id="Shape"></path>
                    <path d="M19.0110701,5.99999465 C20.6642024,5.99690188 22.0036824,4.65154345 21.9999924,2.99690722 C21.9963024,1.33608544 20.6494423,-0.00308743177 18.99631,5.3462241e-06 C17.3394876,0.00309812422 15.9963176,1.34845655 16.0000076,3.00927833 C16.0073876,4.66391456 17.3542477,6.00308743 19.0110701,5.99999465 Z" id="Shape"></path>
                </g>
                <path d="M30.9510368,26 L13.0454783,26 C12.4669803,26 12,25.5533333 12,25 C12,24.4466667 12.4669803,24 13.0454783,24 L30.9545217,24 C31.5330197,24 32,24.4466667 32,25 C32,25.5533333 31.5295348,26 30.9510368,26 Z" id="Shape" fill="#2F2F2F"></path>
            </g>
        </g>
    </g>
</svg>