<?xml version="1.0" encoding="UTF-8"?>
<svg width="160px" height="47px" viewBox="0 0 160 47" version="1.1" xmlns="http://www.w3.org/2000/svg" xmlns:xlink="http://www.w3.org/1999/xlink">
    <!-- Generator: Sketch 49.3 (51167) - http://www.bohemiancoding.com/sketch -->
    <title>play-store</title>
    <desc>Created with Sketch.</desc>
    <defs>
        <linearGradient x1="19.2147947%" y1="-35.1571758%" x2="69.3023416%" y2="93.5367562%" id="linearGradient-1">
            <stop stop-color="#19A3B4" offset="0%"></stop>
            <stop stop-color="#5BC3AF" offset="34.816763%"></stop>
            <stop stop-color="#C8F7A6" offset="92.2336229%"></stop>
            <stop stop-color="#D7FEA5" offset="100%"></stop>
        </linearGradient>
        <path d="M14.8759037,7.35309613 L1.915115,0.219869392 C1.5476183,0.0186165752 1.20867093,-0.0282005454 0.934111405,0.0575295067 L11.5502104,10.6825838 L14.8759037,7.35309613" id="path-2"></path>
        <linearGradient x1="-14.698314%" y1="-114.321644%" x2="74.8444046%" y2="114.156353%" id="linearGradient-4">
            <stop stop-color="#FC227C" offset="0%"></stop>
            <stop stop-color="#FEEB7B" offset="100%"></stop>
        </linearGradient>
        <linearGradient x1="28.1511582%" y1="-14.8137139%" x2="48.1878808%" y2="82.8944571%" id="linearGradient-5">
            <stop stop-color="#0E4DA0" offset="0%"></stop>
            <stop stop-color="#6BFED4" offset="100%"></stop>
        </linearGradient>
        <path d="M0.933503973,0.0575295067 C0.539280237,0.180956461 0.284158558,0.580422023 0.284158558,1.18478849 L0.286588289,20.2059158 C0.286588289,20.8035941 0.533813343,21.1969795 0.916495861,21.3283106 L11.5502104,10.6844079 L0.933503973,0.0575295067" id="path-6"></path>
        <linearGradient x1="132.244588%" y1="16.465744%" x2="5.95853392%" y2="126.310354%" id="linearGradient-8">
            <stop stop-color="#FC472E" offset="0%"></stop>
            <stop stop-color="#FC472F" offset="0.331892433%"></stop>
            <stop stop-color="#893CD8" offset="100%"></stop>
        </linearGradient>
        <path d="M0.916495861,21.3283106 C1.19287768,21.4219449 1.53850681,21.3781678 1.915115,21.1714429 L14.8910895,14.0284879 L11.5502104,10.6844079 L0.916495861,21.3283106" id="path-9"></path>
    </defs>
    <g id="Page-1" stroke="none" stroke-width="1" fill="none" fill-rule="evenodd">
        <g id="Artboard-2" transform="translate(-195.000000, -957.000000)">
            <g id="Group" transform="translate(20.000000, 957.000000)">
                <g id="play-store" transform="translate(175.072333, 0.000000)">
                    <rect id="Button" fill="#2B2D32" x="0" y="0" width="159.927667" height="47" rx="5.81555162"></rect>
                    <g id="Icon---Google-Play" transform="translate(14.235986, 12.818182)">
                        <mask id="mask-3" fill="white">
                            <use xlink:href="#path-2"></use>
                        </mask>
                        <use id="Fill-1" fill="url(#linearGradient-1)" xlink:href="#path-2"></use>
                        <path d="M14.8929118,14.0284879 L19.3174506,11.5933896 C20.2146285,11.0978578 20.2146285,10.2916305 19.3174506,9.79731464 L14.8765111,7.35309613 L11.5502104,10.6825838 L14.8929118,14.0284879" id="Fill-2" fill="url(#linearGradient-4)"></path>
                        <mask id="mask-7" fill="white">
                            <use xlink:href="#path-6"></use>
                        </mask>
                        <use id="Fill-3" fill="url(#linearGradient-5)" xlink:href="#path-6"></use>
                        <mask id="mask-10" fill="white">
                            <use xlink:href="#path-9"></use>
                        </mask>
                        <use id="Fill-4" fill="url(#linearGradient-8)" xlink:href="#path-9"></use>
                    </g>
                    <path d="M48.8821339,20.9656624 C50.8884992,20.9656624 52.1485353,19.5202598 52.1485353,17.7135065 C52.1485353,15.9262857 50.8884992,14.4515844 48.8821339,14.4515844 L46.817613,14.4515844 L46.817613,20.9656624 L48.8821339,20.9656624 Z M48.8821339,20.4578183 L47.3700904,20.4578183 L47.3700904,14.9594286 L48.8821339,14.9594286 C50.5977216,14.9594286 51.5669802,16.1899741 51.5669802,17.7135065 C51.5669802,19.237039 50.588029,20.4578183 48.8821339,20.4578183 L48.8821339,20.4578183 Z M56.4229658,21.0828572 C58.3130201,21.0828572 59.5633637,19.6179222 59.5633637,17.7135065 C59.5633637,15.8090909 58.3130201,14.3441558 56.4229658,14.3441558 C54.5232189,14.3441558 53.2825679,15.8090909 53.2825679,17.7135065 C53.2825679,19.6179222 54.5232189,21.0828572 56.4229658,21.0828572 L56.4229658,21.0828572 Z M56.4229658,20.5750131 C54.8624594,20.5750131 53.8641231,19.3542338 53.8641231,17.7135065 C53.8641231,16.063013 54.8624594,14.852 56.4229658,14.852 C57.9737796,14.852 58.9818085,16.063013 58.9818085,17.7135065 C58.9818085,19.3542338 57.9737796,20.5750131 56.4229658,20.5750131 L56.4229658,20.5750131 Z M66.5032553,20.9656624 L68.3448466,14.4515844 L67.7245211,14.4515844 L66.1640148,20.1843637 L64.5841232,14.4515844 L64.0801088,14.4515844 L62.4905247,20.1843637 L60.9300183,14.4515844 L60.3096928,14.4515844 L62.1609767,20.9656624 L62.7813022,20.9656624 L64.332116,15.3696104 L65.8829298,20.9656624 L66.5032553,20.9656624 Z M74.4996388,20.9656624 L74.4996388,14.4515844 L73.9471614,14.4515844 L73.9471614,19.9695066 L69.8956604,14.4515844 L69.3334904,14.4515844 L69.3334904,20.9656624 L69.8859678,20.9656624 L69.8859678,15.3696104 L73.9568539,20.9656624 L74.4996388,20.9656624 Z M79.6657871,20.9656624 L79.6657871,20.4578183 L76.5350818,20.4578183 L76.5350818,14.4515844 L75.9729118,14.4515844 L75.9729118,20.9656624 L79.6657871,20.9656624 Z M83.6979029,21.0828572 C85.5879572,21.0828572 86.8383008,19.6179222 86.8383008,17.7135065 C86.8383008,15.8090909 85.5879572,14.3441558 83.6979029,14.3441558 C81.798156,14.3441558 80.557505,15.8090909 80.557505,17.7135065 C80.557505,19.6179222 81.798156,21.0828572 83.6979029,21.0828572 L83.6979029,21.0828572 Z M83.6979029,20.5750131 C82.1373966,20.5750131 81.1390602,19.3542338 81.1390602,17.7135065 C81.1390602,16.063013 82.1373966,14.852 83.6979029,14.852 C85.2487167,14.852 86.2567456,16.063013 86.2567456,17.7135065 C86.2567456,19.3542338 85.2487167,20.5750131 83.6979029,20.5750131 L83.6979029,20.5750131 Z M93.5261852,20.9656624 L90.8801092,14.4515844 L90.1919356,14.4515844 L87.5458596,20.9656624 L88.1855702,20.9656624 L88.8252809,19.3640001 L92.2467638,19.3640001 L92.8864745,20.9656624 L93.5261852,20.9656624 Z M92.0626047,18.8561559 L89.0094401,18.8561559 L90.5408687,15.0473247 L92.0626047,18.8561559 Z M96.5405794,20.9656624 C98.5469447,20.9656624 99.8069809,19.5202598 99.8069809,17.7135065 C99.8069809,15.9262857 98.5469447,14.4515844 96.5405794,14.4515844 L94.4760586,14.4515844 L94.4760586,20.9656624 L96.5405794,20.9656624 Z M96.5405794,20.4578183 L95.028536,20.4578183 L95.028536,14.9594286 L96.5405794,14.9594286 C98.2561671,14.9594286 99.2254257,16.1899741 99.2254257,17.7135065 C99.2254257,19.237039 98.2464746,20.4578183 96.5405794,20.4578183 L96.5405794,20.4578183 Z M104.246185,20.9656624 L104.246185,17.8795325 L107.725824,17.8795325 L107.725824,17.3716884 L104.246185,17.3716884 L104.246185,14.9594286 L107.793672,14.9594286 L107.793672,14.4515844 L103.693708,14.4515844 L103.693708,20.9656624 L104.246185,20.9656624 Z M113.405679,20.9656624 L111.53501,18.2311169 C112.504269,18.192052 113.328138,17.5377143 113.328138,16.356 C113.328138,15.1645195 112.475191,14.4515844 111.360543,14.4515844 L108.94709,14.4515844 L108.94709,20.9656624 L109.499567,20.9656624 L109.499567,18.2701819 L110.924377,18.2701819 L112.736891,20.9656624 L113.405679,20.9656624 Z M111.312081,17.7623377 L109.499567,17.7623377 L109.499567,14.9594286 L111.312081,14.9594286 C112.174721,14.9594286 112.746583,15.5356364 112.746583,16.356 C112.746583,17.1763637 112.174721,17.7623377 111.312081,17.7623377 L111.312081,17.7623377 Z M117.602569,21.0828572 C119.492623,21.0828572 120.742967,19.6179222 120.742967,17.7135065 C120.742967,15.8090909 119.492623,14.3441558 117.602569,14.3441558 C115.702822,14.3441558 114.462171,15.8090909 114.462171,17.7135065 C114.462171,19.6179222 115.702822,21.0828572 117.602569,21.0828572 L117.602569,21.0828572 Z M117.602569,20.5750131 C116.042063,20.5750131 115.043726,19.3542338 115.043726,17.7135065 C115.043726,16.063013 116.042063,14.852 117.602569,14.852 C119.153383,14.852 120.161412,16.063013 120.161412,17.7135065 C120.161412,19.3542338 119.153383,20.5750131 117.602569,20.5750131 L117.602569,20.5750131 Z M128.157795,20.9656624 L128.157795,14.4515844 L127.324233,14.4515844 L125.133708,19.8718442 L122.933491,14.4515844 L122.109621,14.4515844 L122.109621,20.9656624 L122.662099,20.9656624 L122.662099,15.1547533 L125.02709,20.9656624 L125.240327,20.9656624 L127.595625,15.1547533 L127.595625,20.9656624 L128.157795,20.9656624 Z M49.7932369,32.6802598 C50.9563473,32.6802598 51.8771429,32.2017144 52.5362388,31.4594806 L52.5362388,28.9593247 L49.4539964,28.9593247 L49.4539964,30.1703377 L51.1598916,30.1703377 L51.1598916,30.9516364 C50.8981917,31.1957923 50.3650995,31.4497144 49.7932369,31.4497144 C48.6107414,31.4497144 47.7577939,30.5414546 47.7577939,29.3109091 C47.7577939,28.0803637 48.6107414,27.1721039 49.7932369,27.1721039 C50.471718,27.1721039 51.0241954,27.5627533 51.3246655,28.0217663 L52.4586981,27.3967273 C51.9740688,26.6251948 51.1308138,25.9415584 49.7932369,25.9415584 C47.8934901,25.9415584 46.3426763,27.2502338 46.3426763,29.3109091 C46.3426763,31.3618183 47.8934901,32.6802598 49.7932369,32.6802598 L49.7932369,32.6802598 Z M56.7040508,32.6802598 C58.6522606,32.6802598 60.0770707,31.2739222 60.0770707,29.3109091 C60.0770707,27.3478961 58.6522606,25.9415584 56.7040508,25.9415584 C54.7461484,25.9415584 53.3213383,27.3478961 53.3213383,29.3109091 C53.3213383,31.2739222 54.7461484,32.6802598 56.7040508,32.6802598 L56.7040508,32.6802598 Z M56.7040508,31.4497144 C55.5021701,31.4497144 54.7364558,30.5219221 54.7364558,29.3109091 C54.7364558,28.0901299 55.5021701,27.1721039 56.7040508,27.1721039 C57.8962389,27.1721039 58.6619532,28.0901299 58.6619532,29.3109091 C58.6619532,30.5219221 57.8962389,31.4497144 56.7040508,31.4497144 L56.7040508,31.4497144 Z M64.1188791,32.6802598 C66.0670889,32.6802598 67.491899,31.2739222 67.491899,29.3109091 C67.491899,27.3478961 66.0670889,25.9415584 64.1188791,25.9415584 C62.1609767,25.9415584 60.7361666,27.3478961 60.7361666,29.3109091 C60.7361666,31.2739222 62.1609767,32.6802598 64.1188791,32.6802598 L64.1188791,32.6802598 Z M64.1188791,31.4497144 C62.9169984,31.4497144 62.1512841,30.5219221 62.1512841,29.3109091 C62.1512841,28.0901299 62.9169984,27.1721039 64.1188791,27.1721039 C65.3110672,27.1721039 66.0767815,28.0901299 66.0767815,29.3109091 C66.0767815,30.5219221 65.3110672,31.4497144 64.1188791,31.4497144 L64.1188791,31.4497144 Z M71.6015555,32.6802598 C72.7646659,32.6802598 73.6854615,32.2017144 74.3445574,31.4594806 L74.3445574,28.9593247 L71.262315,28.9593247 L71.262315,30.1703377 L72.9682102,30.1703377 L72.9682102,30.9516364 C72.7065103,31.1957923 72.1734181,31.4497144 71.6015555,31.4497144 C70.41906,31.4497144 69.5661125,30.5414546 69.5661125,29.3109091 C69.5661125,28.0803637 70.41906,27.1721039 71.6015555,27.1721039 C72.2800366,27.1721039 72.832514,27.5627533 73.1329841,28.0217663 L74.2670167,27.3967273 C73.7823874,26.6251948 72.9391324,25.9415584 71.6015555,25.9415584 C69.7018087,25.9415584 68.1509949,27.2502338 68.1509949,29.3109091 C68.1509949,31.3618183 69.7018087,32.6802598 71.6015555,32.6802598 L71.6015555,32.6802598 Z M79.5010132,32.563065 L79.5010132,31.3422858 L76.7677039,31.3422858 L76.7677039,26.048987 L75.3816641,26.048987 L75.3816641,32.563065 L79.5010132,32.563065 Z M85.006402,32.563065 L85.006402,31.3422858 L81.8078486,31.3422858 L81.8078486,29.8578182 L84.9385539,29.8578182 L84.9385539,28.637039 L81.8078486,28.637039 L81.8078486,27.2697663 L85.006402,27.2697663 L85.006402,26.048987 L80.4315014,26.048987 L80.4315014,32.563065 L85.006402,32.563065 Z M89.9496209,32.563065 L89.9496209,30.2387014 L91.5973605,30.2387014 C92.9930929,30.2387014 93.7684998,29.2816104 93.7684998,28.1487273 C93.7684998,27.0060779 93.0027855,26.048987 91.5973605,26.048987 L88.5732737,26.048987 L88.5732737,32.563065 L89.9496209,32.563065 Z M91.4035088,29.0179221 L89.9496209,29.0179221 L89.9496209,27.2697663 L91.4035088,27.2697663 C91.9462936,27.2697663 92.3630748,27.6018182 92.3630748,28.1487273 C92.3630748,28.6858702 91.9462936,29.0179221 91.4035088,29.0179221 L91.4035088,29.0179221 Z M98.6923335,32.563065 L98.6923335,31.3422858 L95.9590242,31.3422858 L95.9590242,26.048987 L94.5729844,26.048987 L94.5729844,32.563065 L98.6923335,32.563065 Z M105.65161,32.563065 L103.160616,26.048987 L101.435335,26.048987 L98.9443407,32.563065 L100.504847,32.563065 L100.911936,31.4594806 L103.684015,31.4594806 L104.091104,32.563065 L105.65161,32.563065 Z M103.306004,30.2387014 L101.289947,30.2387014 L102.297976,27.4357922 L103.306004,30.2387014 Z M109.431719,32.563065 L109.431719,29.8968832 L111.903328,26.048987 L110.342822,26.048987 L108.743545,28.6565715 L107.144269,26.048987 L105.57407,26.048987 L108.055372,29.8968832 L108.055372,32.563065 L109.431719,32.563065 Z M117.302099,32.6802598 C119.037072,32.6802598 119.890019,31.7817663 119.890019,30.5902858 C119.890019,28.1584935 116.177759,28.8518961 116.177759,27.8264416 C116.177759,27.4357922 116.507307,27.1818701 117.088862,27.1818701 C117.747958,27.1818701 118.445824,27.4064935 118.969224,27.8948052 L119.734938,26.8595844 C119.095227,26.2638442 118.24228,25.9513247 117.214865,25.9513247 C115.693129,25.9513247 114.762641,26.8498182 114.762641,27.9338702 C114.762641,30.3851949 118.484594,29.5941299 118.484594,30.7270131 C118.484594,31.1078962 118.125969,31.4497144 117.360254,31.4497144 C116.468536,31.4497144 115.760978,31.0395325 115.305426,30.5609871 L114.549404,31.645039 C115.160037,32.2603118 116.051755,32.6802598 117.302099,32.6802598 L117.302099,32.6802598 Z M123.689513,32.563065 L123.689513,27.2697663 L125.569875,27.2697663 L125.569875,26.048987 L120.413419,26.048987 L120.413419,27.2697663 L122.303473,27.2697663 L122.303473,32.563065 L123.689513,32.563065 Z M129.52445,32.6802598 C131.472659,32.6802598 132.89747,31.2739222 132.89747,29.3109091 C132.89747,27.3478961 131.472659,25.9415584 129.52445,25.9415584 C127.566547,25.9415584 126.141737,27.3478961 126.141737,29.3109091 C126.141737,31.2739222 127.566547,32.6802598 129.52445,32.6802598 L129.52445,32.6802598 Z M129.52445,31.4497144 C128.322569,31.4497144 127.556855,30.5219221 127.556855,29.3109091 C127.556855,28.0901299 128.322569,27.1721039 129.52445,27.1721039 C130.716638,27.1721039 131.482352,28.0901299 131.482352,29.3109091 C131.482352,30.5219221 130.716638,31.4497144 129.52445,31.4497144 L129.52445,31.4497144 Z M139.110417,32.563065 L137.646837,30.0824416 C138.344703,29.9164156 139.071647,29.2913767 139.071647,28.1487273 C139.071647,26.9377143 138.238085,26.048987 136.890815,26.048987 L133.866728,26.048987 L133.866728,32.563065 L135.243075,32.563065 L135.243075,30.2484676 L136.251104,30.2484676 L137.520833,32.563065 L139.110417,32.563065 Z M136.696963,29.0276884 L135.243075,29.0276884 L135.243075,27.2697663 L136.696963,27.2697663 C137.239748,27.2697663 137.656529,27.6018182 137.656529,28.1389611 C137.656529,28.6956364 137.239748,29.0276884 136.696963,29.0276884 L136.696963,29.0276884 Z M144.673962,32.563065 L144.673962,31.3422858 L141.475408,31.3422858 L141.475408,29.8578182 L144.606114,29.8578182 L144.606114,28.637039 L141.475408,28.637039 L141.475408,27.2697663 L144.673962,27.2697663 L144.673962,26.048987 L140.099061,26.048987 L140.099061,32.563065 L144.673962,32.563065 Z" id="DOWNLOAD-FROM" fill="#FFFFFF"></path>
                </g>
            </g>
        </g>
    </g>
</svg>