<svg class="ldi-cllf9k" width="200px"  height="200px"  xmlns="http://www.w3.org/2000/svg" xmlns:xlink="http://www.w3.org/1999/xlink" viewBox="0 0 100 100" preserveAspectRatio="xMidYMid" style="background: none;"><!--?xml version="1.0" encoding="utf-8"?--><!--Generator: Adobe Illustrator 21.0.0, SVG Export Plug-In . SVG Version: 6.00 Build 0)--><svg version="1.1" id="Layer_1" xmlns="http://www.w3.org/2000/svg" xmlns:xlink="http://www.w3.org/1999/xlink" x="0px" y="0px" viewBox="0 0 100 100" style="transform-origin: 50px 50px 0px;" xml:space="preserve"><g style="transform-origin: 50px 50px 0px; transform: scale(0.6);"><g style="transform-origin: 50px 50px 0px;"><style type="text/css" class="ld ld-spin" style="transform-origin: 50px 50px 0px; animation-duration: 1s; animation-delay: -1s;">.st0{fill:#F4E6C8;} .st1{opacity:0.8;fill:#849B87;} .st2{fill:#D65A62;} .st3{fill:#E15C64;} .st4{fill:#F47E5F;} .st5{fill:#F7B26A;} .st6{fill:#FEE8A2;} .st7{fill:#ACBD81;} .st8{fill:#F5E169;} .st9{fill:#F0AF6B;} .st10{fill:#EA7C60;} .st11{fill:#A8B980;} .st12{fill:#829985;} .st13{fill:#798AAE;} .st14{fill:#8672A7;} .st15{fill:#CC5960;} .st16{fill:#E17A5F;} .st17{fill:#849B87;} .st18{opacity:0.8;fill:#E15C64;} .st19{opacity:0.8;fill:#F7B26A;} .st20{fill:#79A5B5;} .st21{opacity:0.8;fill:#79A5B4;} .st22{fill:#666766;}</style><g class="ld ld-spin" style="transform-origin: 50px 50px 0px; animation-duration: 1s; animation-delay: -0.923077s;"><path class="st3" d="M50,92.5C26.6,92.5,7.5,73.4,7.5,50c0-7.5,2-14.8,5.7-21.2c0.8-1.4,2.6-1.9,4-1.1c1.4,0.8,1.9,2.6,1.1,4 C15,37.2,13.3,43.6,13.3,50c0,20.2,16.5,36.7,36.7,36.7S86.7,70.2,86.7,50S70.2,13.3,50,13.3c-1.6,0-2.9-1.3-2.9-2.9 s1.3-2.9,2.9-2.9c23.4,0,42.5,19.1,42.5,42.5S73.4,92.5,50,92.5z" fill="#d6407e" style="fill: rgb(214, 64, 126);"></path></g><g class="ld ld-spin" style="transform-origin: 50px 50px 0px; animation-duration: 1s; animation-delay: -0.846154s;"><path class="st4" d="M79.3,50c0-16.2-13.1-29.3-29.3-29.3c-5.1,0-10.2,1.4-14.6,3.9c-1.4,0.8-1.9,2.6-1.1,4c0.8,1.4,2.6,1.9,4,1.1 c3.6-2.1,7.6-3.1,11.7-3.1C63,26.5,73.5,37,73.5,50S63,73.5,50,73.5C37,73.5,26.5,63,26.5,50c0-1.6-1.3-2.9-2.9-2.9 c-1.6,0-2.9,1.3-2.9,2.9c0,16.2,13.1,29.3,29.3,29.3C66.2,79.3,79.3,66.2,79.3,50z" fill="#3cbbd6" style="fill: rgb(60, 187, 214);"></path></g><g class="ld ld-spin" style="transform-origin: 50px 50px 0px; animation-duration: 1s; animation-delay: -0.769231s;"><path class="st5" d="M66.1,50c0-8.9-7.2-16.1-16.1-16.1c-5.7,0-11.1,3.1-13.9,8.1c-0.8,1.4-0.3,3.2,1.1,4c1.4,0.8,3.2,0.3,4-1.1 c1.8-3.2,5.3-5.2,8.9-5.2c5.7,0,10.3,4.6,10.3,10.3S55.7,60.3,50,60.3c-3.7,0-7.1-2-8.9-5.2c-0.8-1.4-2.6-1.9-4-1.1 c-1.4,0.8-1.9,2.6-1.1,4c2.9,5,8.2,8.1,13.9,8.1C58.9,66.1,66.1,58.9,66.1,50z" fill="#7E6BA0" style="fill: rgb(126, 107, 160);"></path></g><metadata xmlns:d="https://loading.io/stock/" class="ld ld-spin" style="transform-origin: 50px 50px 0px; animation-duration: 1s; animation-delay: -0.692308s;">
<d:name class="ld ld-spin" style="transform-origin: 50px 50px 0px; animation-duration: 1s; animation-delay: -0.615385s;">ring</d:name>
<d:tags class="ld ld-spin" style="transform-origin: 50px 50px 0px; animation-duration: 1s; animation-delay: -0.538462s;">onion,tree ring,curve bar,circle,concentric,c,round,ring,spinner</d:tags>
<d:license class="ld ld-spin" style="transform-origin: 50px 50px 0px; animation-duration: 1s; animation-delay: -0.461538s;">cc-by</d:license>
<d:slug class="ld ld-spin" style="transform-origin: 50px 50px 0px; animation-duration: 1s; animation-delay: -0.384615s;">cllf9k</d:slug>
</metadata></g></g><style type="text/css" class="ld ld-spin" style="transform-origin: 50px 50px 0px; animation-duration: 1s; animation-delay: -0.307692s;">path,ellipse,circle,rect,polygon,polyline,line { stroke-width: 0; }@keyframes ld-spin {
  0% {
    -webkit-transform: rotate(0);
    transform: rotate(0);
    animation-timing-function: cubic-bezier(0.55, 0.055, 0.675, 0.19);
  }
  50% {
    -webkit-transform: rotate(180deg);
    transform: rotate(180deg);
    animation-timing-function: cubic-bezier(0.215, 0.61, 0.355, 1);
  }
  100% {
    -webkit-transform: rotate(360deg);
    transform: rotate(360deg);
  }
}
@-webkit-keyframes ld-spin {
  0% {
    -webkit-transform: rotate(0);
    transform: rotate(0);
    animation-timing-function: cubic-bezier(0.55, 0.055, 0.675, 0.19);
  }
  50% {
    -webkit-transform: rotate(180deg);
    transform: rotate(180deg);
    animation-timing-function: cubic-bezier(0.215, 0.61, 0.355, 1);
  }
  100% {
    -webkit-transform: rotate(360deg);
    transform: rotate(360deg);
  }
}
.ld.ld-spin {
  -webkit-animation: ld-spin 1s infinite;
  animation: ld-spin 1s infinite;
}
</style></svg></svg>