<?xml version="1.0" encoding="UTF-8"?>
<svg width="33px" height="30px" viewBox="0 0 33 30" version="1.1" xmlns="http://www.w3.org/2000/svg" xmlns:xlink="http://www.w3.org/1999/xlink">
    <!-- Generator: Sketch 49.3 (51167) - http://www.bohemiancoding.com/sketch -->
    <title>sessions</title>
    <desc>Created with Sketch.</desc>
    <defs></defs>
    <g id="Page-1" stroke="none" stroke-width="1" fill="none" fill-rule="evenodd" fill-opacity="0.699999988">
        <g id="Profile" transform="translate(-56.000000, -130.000000)" fill="#FFFFFF" fill-rule="nonzero">
            <g id="Group-5" transform="translate(20.000000, 115.000000)">
                <g id="sessions" transform="translate(36.000000, 15.000000)">
                    <path d="M8.18181818,30 L8.18181818,15 C2.67818182,15 0,18.7022727 0,22.5 C0,26.3277273 2.72045455,30 8.18181818,30 Z M32.7272727,22.5 C32.7272727,18.7022727 30.0490909,15 24.5454545,15 L24.5454545,30 C30.0068182,30 32.7272727,26.3277273 32.7272727,22.5 Z M16.3636364,4.06090909 C11.0740909,4.05 7.00772727,7.26409091 5.805,12.5086364 C4.78090909,12.7063636 3.78818182,13.0336364 2.85818182,13.485 C3.71590909,5.98363636 8.74772727,0 16.3636364,0 C23.985,0 29.0318182,5.985 29.8854545,13.4945455 C28.9527273,13.0390909 27.9559091,12.7104545 26.9277273,12.5113636 C25.7263636,7.26136364 21.6545455,4.05 16.3636364,4.06090909 L16.3636364,4.06090909 Z M14.7940909,26.85 L15.8659091,20.3209091 L16.9609091,25.02 C17.0686364,25.5013636 17.7368182,25.5559091 17.9195455,25.0922727 L18.9109091,22.5586364 L19.8354545,24.7159091 C19.9895455,25.0731818 20.4736364,25.1290909 20.7040909,24.8140909 L21.5468182,23.6686364 L23.1818182,23.6686364 L23.1818182,22.6636364 L21.285,22.6636364 C21.1254545,22.6636364 20.9727273,22.74 20.8786364,22.8695455 L20.4122727,23.5090909 L19.35,21.0368182 C19.1727273,20.6236364 18.5836364,20.6331818 18.4186364,21.0518182 L17.5786364,23.2009091 L16.2831818,17.4627273 C16.1604545,16.92 15.3845455,16.9513636 15.2959091,17.4927273 L14.2213636,24.12 L13.1236364,20.0386364 C13.0009091,19.5518182 12.3122727,19.5245455 12.1568182,20.0072727 L11.3413636,22.6636364 L9.54545455,22.6636364 L9.54545455,23.6686364 L11.7368182,23.6686364 C11.9181818,23.6686364 12.1159091,23.5213636 12.1663636,23.3481818 L12.5727273,21.9736364 L13.8081818,26.8922727 C13.9431818,27.4227273 14.7068182,27.3872727 14.7940909,26.85 L14.7940909,26.85 Z" id="Shape"></path>
                </g>
            </g>
        </g>
    </g>
</svg>