<?xml version="1.0" encoding="UTF-8"?>
<svg width="119px" height="30px" viewBox="0 0 119 30" version="1.1" xmlns="http://www.w3.org/2000/svg" xmlns:xlink="http://www.w3.org/1999/xlink">
    <!-- Generator: Sketch 49.2 (51160) - http://www.bohemiancoding.com/sketch -->
    <title>logo-Welzen</title>
    <desc>Created with Sketch.</desc>
    <defs>
        <linearGradient x1="7.35520833%" y1="100%" x2="7.35520869%" y2="0%" id="linearGradient-1">
            <stop stop-color="#A12F5B" offset="0%"></stop>
            <stop stop-color="#E2387E" offset="100%"></stop>
        </linearGradient>
        <path d="M9.83690016,0.914690218 C10.8269475,-0.304896739 12.7067251,-0.304896739 13.6964808,0.914690218 C17.0346462,5.02749147 23.5336726,13.6456378 23.5336726,18.4047282 C23.5336726,24.8087091 18.2652794,30 11.7668363,30 C5.26810155,30 0,24.8087091 0,18.4047282 C0,13.6456378 6.49873473,5.02749147 9.83690016,0.914690218 Z" id="path-2"></path>
    </defs>
    <g id="logo-Welzen" stroke="none" stroke-width="1" fill="none" fill-rule="evenodd">
        <g id="Stroke-180">
            <use fill="url(#linearGradient-1)" fill-rule="evenodd" xlink:href="#path-2"></use>
            <path stroke="#FFFFFF" stroke-width="1.46938776" d="M10.4073238,1.37771497 C4.78374572,8.30627224 0.734693878,14.7776129 0.734693878,18.4047282 C0.734693878,24.4005139 5.67146594,29.2653061 11.7668363,29.2653061 C17.8620185,29.2653061 22.7989787,24.4004117 22.7989787,18.4047282 C22.7989787,14.7776634 18.7501189,8.30686486 13.1260094,1.37765621 C12.4302766,0.520367219 11.1033399,0.520359395 10.4073238,1.37771497 Z M10.4073238,1.37771497 C10.4073175,1.37772279 10.4073111,1.37773061 10.4073048,1.37773844 L10.4073429,1.37769149 C10.4073365,1.37769932 10.4073302,1.37770714 10.4073238,1.37771497 Z"></path>
        </g>
        <path d="M17.9221236,15.3311694 C17.6265303,15.2291295 17.3081004,15.3764353 17.1941738,15.6713025 L14.8627844,22.0527614 L12.6245377,15.9556844 L12.6245377,15.9554287 L11.9733088,14.2854521 L11.9738219,14.2798258 C11.4642314,13.1494588 10.9551541,11.6311355 10.9551541,11.2480382 C10.9551541,10.6818318 11.4172752,10.2209898 11.9856251,10.2209898 C12.5537185,10.2209898 13.0160962,10.6818318 13.0160962,11.2480382 C13.0160962,11.5446957 12.7102392,12.5223864 12.3356158,13.473736 L12.9611856,15.0946107 C13.541852,13.5870285 14.1661388,11.831635 14.1661388,11.2528973 C14.1661388,9.93584069 13.3070708,9.07962604 11.9856251,9.07962604 C10.6641795,9.07962604 9.80485489,9.93584069 9.80485489,11.2528973 C9.80485489,11.9469733 10.703438,14.3348097 11.3469692,15.9561959 L11.9856251,17.5272015 C11.9856251,17.5272015 11.9869081,17.5238768 11.9871647,17.5231096 L14.3283046,23.9004767 C14.4081045,24.1270616 14.6241544,24.274623 14.8627844,24.274623 C15.101671,24.274623 15.317721,24.1270616 15.3975209,23.9004767 L18.2633902,16.0567014 C18.3770602,15.7618341 18.2179735,15.4444619 17.9221236,15.3311694" id="Fill-182" fill="#FFFFFF"></path>
        <path d="M11.02156,16.8467307 L9.11970455,22.0528125 L6.77676854,15.6713536 C6.66309855,15.3764864 6.34466863,15.2291807 6.04907535,15.3312206 C5.75322547,15.444513 5.59413881,15.7618853 5.70780879,16.0564968 L8.58522468,23.9005278 C8.66476801,24.1271127 8.88081797,24.2744185 9.11970455,24.2744185 C9.35833455,24.2744185 9.56309448,24.1271127 9.65418443,23.9005278 L11.6430243,18.4568644 L11.02156,16.8467307 Z" id="Fill-184" fill="#FFFFFF"></path>
        <path d="M43.2995309,24.0304561 C42.8943122,24.0304561 42.5283082,23.782338 42.3932353,23.4015456 L38.4220922,12.6712985 L34.4701206,23.4015456 C34.3158761,23.782338 33.9690437,24.0304561 33.5638251,24.0304561 C33.1586064,24.0304561 32.7934738,23.782338 32.6575295,23.4015456 L27.7809622,10.2125169 C27.5875029,9.71800369 27.8576487,9.18386052 28.3587256,8.99346432 C28.8598025,8.82202159 29.4000941,9.06927819 29.5926819,9.56465291 L33.5638251,20.2949 L37.5157966,9.56465291 C37.6508695,9.18386052 38.0177449,8.93660392 38.4220922,8.93660392 C38.8264394,8.93660392 39.1933148,9.18386052 39.3275163,9.56465291 L43.2995309,20.2949 L47.2515024,9.56465291 C47.4440902,9.06927819 47.9835104,8.82202159 48.4854587,8.99346432 C48.9856641,9.18386052 49.2558099,9.71800369 49.0632221,10.2125169 L44.2058265,23.4015456 C44.0698821,23.782338 43.7038782,24.0304561 43.2995309,24.0304561" id="Fill-186" fill="#FFFFFF"></path>
        <path d="M52.9735389,22.0484403 L61.2243143,22.0484403 C61.7637345,22.0484403 62.1881248,22.4680012 62.1881248,23.0012828 C62.1881248,23.5345645 61.7637345,23.9541253 61.2243143,23.9541253 L52.0097285,23.9541253 C51.4894799,23.9541253 51.045918,23.5345645 51.045918,23.0012828 L51.045918,9.94665142 C51.045918,9.41250825 51.4894799,8.99294741 52.0097285,8.99294741 L61.0317265,8.99294741 C61.5711467,8.99294741 61.9946656,9.41250825 61.9946656,9.94665142 C61.9946656,10.4799331 61.5711467,10.8994939 61.0317265,10.8994939 L52.9735389,10.8994939" id="Fill-188" fill="#FFFFFF"></path>
        <path d="M100.933045,17.3971733 L96.3571234,17.3971733 C95.8177033,17.3971733 95.393313,16.958659 95.393313,16.4443308 C95.393313,15.9101876 95.8177033,15.4914883 96.3571234,15.4914883 L100.933045,15.4914883 C101.473336,15.4914883 101.896855,15.9101876 101.896855,16.4443308 C101.896855,16.958659 101.473336,17.3971733 100.933045,17.3971733" id="Fill-190" fill="#FFFFFF"></path>
        <path d="M60.0782862,17.3971733 L55.502365,17.3971733 C54.9629448,17.3971733 54.5385545,16.958659 54.5385545,16.4443308 C54.5385545,15.9101876 54.9629448,15.4914883 55.502365,15.4914883 L60.0782862,15.4914883 C60.6185778,15.4914883 61.0420967,15.9101876 61.0420967,16.4443308 C61.0420967,16.958659 60.6185778,17.3971733 60.0782862,17.3971733" id="Fill-192" fill="#FFFFFF"></path>
        <path d="M74.2539689,23.9731649 L65.8489489,23.9731649 C65.3287004,23.9731649 64.8851384,23.5536041 64.8851384,23.0203224 L64.8851384,9.94587606 C64.8851384,9.41259441 65.3287004,8.99303356 65.8489489,8.99303356 C66.3883691,8.99303356 66.8127594,9.41259441 66.8127594,9.94587606 L66.8127594,22.0674799 L74.2539689,22.0674799 C74.793389,22.0674799 75.2169079,22.4870408 75.2169079,23.0203224 C75.2169079,23.5536041 74.793389,23.9731649 74.2539689,23.9731649" id="Fill-194" fill="#FFFFFF"></path>
        <path d="M88.2097877,23.9540392 L77.7037306,23.9540392 C77.3368552,23.9540392 77.0091945,23.7446895 76.8357784,23.401804 C76.6815338,23.0778721 76.7198771,22.6772647 76.9516796,22.3912396 L86.2046088,10.8994078 L78.0122197,10.8994078 C77.4919712,10.8994078 77.0475378,10.4798469 77.0475378,9.94656527 C77.0475378,9.4124221 77.4919712,8.99286126 78.0122197,8.99286126 L88.2097877,8.99286126 C88.5757917,8.99286126 88.9043238,9.20307244 89.0768686,9.52700443 C89.2319846,9.86988988 89.1927698,10.2515438 88.9609673,10.5367073 L79.7080382,22.0483542 L88.2097877,22.0483542 C88.7300362,22.0483542 89.1735982,22.467915 89.1735982,23.0011967 C89.1735982,23.5155248 88.7300362,23.9540392 88.2097877,23.9540392" id="Fill-196" fill="#FFFFFF"></path>
        <path d="M93.7976228,22.0484403 L102.048398,22.0484403 C102.587818,22.0484403 103.012209,22.4680012 103.012209,23.0012828 C103.012209,23.5345645 102.587818,23.9541253 102.048398,23.9541253 L92.8338123,23.9541253 C92.3135638,23.9541253 91.8700018,23.5345645 91.8700018,23.0012828 L91.8700018,9.94665142 C91.8700018,9.41250825 92.3135638,8.99294741 92.8338123,8.99294741 L101.85581,8.99294741 C102.395231,8.99294741 102.819621,9.41250825 102.819621,9.94665142 C102.819621,10.4799331 102.395231,10.8994939 101.85581,10.8994939 L93.7976228,10.8994939" id="Fill-198" fill="#FFFFFF"></path>
        <path d="M117.700123,24.0304561 C117.410805,24.0304561 117.141531,23.8969203 116.948943,23.6875706 L107.637628,12.6144381 L107.637628,23.0586601 C107.637628,23.5919418 107.213237,24.0115026 106.673817,24.0115026 C106.133525,24.0115026 105.709135,23.5919418 105.709135,23.0586601 L105.709135,9.98421375 C105.709135,9.58360637 105.960109,9.22176745 106.345285,9.08909318 C106.731332,8.95469587 107.154851,9.06927819 107.405825,9.37425671 L116.736312,20.4284358 L116.736312,10.0031672 C116.736312,9.46988557 117.160702,9.05032472 117.700123,9.05032472 C118.220371,9.05032472 118.663933,9.46988557 118.663933,10.0031672 L118.663933,23.0776136 C118.663933,23.4773595 118.394659,23.8211064 118.027783,23.9727342 C117.911882,24.0115026 117.796852,24.0304561 117.700123,24.0304561" id="Fill-200" fill="#FFFFFF"></path>
    </g>
</svg>